<svg width="52" height="52" viewBox="0 0 52 52" fill="none" xmlns="http://www.w3.org/2000/svg">
<path d="M47.2453 21.7566H45.5V21.6666H26V30.3333H38.245C36.4585 35.3784 31.6583 39 26 39C18.8208 39 13 33.1792 13 26C13 18.8207 18.8208 13 26 13C29.314 13 32.3289 14.2501 34.6245 16.2922L40.7529 10.1638C36.8832 6.5574 31.707 4.33331 26 4.33331C14.0346 4.33331 4.33337 14.0346 4.33337 26C4.33337 37.9654 14.0346 47.6666 26 47.6666C37.9655 47.6666 47.6667 37.9654 47.6667 26C47.6667 24.5472 47.5172 23.1291 47.2453 21.7566Z" fill="#FFC107"/>
<path d="M6.83154 15.9152L13.9501 21.1358C15.8763 16.367 20.5411 13 26 13C29.314 13 32.3289 14.2501 34.6245 16.2922L40.7529 10.1638C36.8832 6.5574 31.707 4.33331 26 4.33331C17.6779 4.33331 10.4607 9.03173 6.83154 15.9152Z" fill="#FF3D00"/>
<path d="M26.0001 47.6667C31.5966 47.6667 36.6817 45.5249 40.5265 42.042L33.8206 36.3675C31.6453 38.0153 28.9413 39 26.0001 39C20.3646 39 15.5795 35.4066 13.7768 30.3918L6.7113 35.8356C10.2971 42.8523 17.5793 47.6667 26.0001 47.6667Z" fill="#4CAF50"/>
<path d="M47.2452 21.7566H45.5V21.6667H26V30.3334H38.2449C37.3869 32.7568 35.828 34.8465 33.8173 36.3686L33.8206 36.3664L40.5264 42.0409C40.0519 42.4721 47.6667 36.8334 47.6667 26C47.6667 24.5473 47.5172 23.1292 47.2452 21.7566Z" fill="#1976D2"/>
</svg>
